# xmcd
#
# Track frame offsets:
# 150
# 34372
# 60615
# 86780
#
# Disc length: 1476 seconds
#
# Revision: 1
# Processed by: cddbd v1.5.2PL0 Copyright (c) Steve Scherf et al.
# Submitted via: CedeCatalogueitor 2.6.0.6 http://personales.ya.com/cdcatalogueitor
#
DISCID=3105c204
DTITLE=Royksopp - Beautiful Day Without You
DYEAR=1900
DGENRE=
TTITLE0=Rex The Dog Rmx
TTITLE1=Cass and Mangan Living Underdog Rmx
TTITLE2=Wighnomy and Robag Whruhmes Spkkfakkel Rmx
TTITLE3=Album Version
EXTD=
EXTT0=
EXTT1=
EXTT2=
EXTT3=
PLAYORDER=
